<?xml version="1.0" standalone="no"?>
<!DOCTYPE svg PUBLIC "-//W3C//DTD SVG 20010904//EN"
 "http://www.w3.org/TR/2001/REC-SVG-20010904/DTD/svg10.dtd">
<svg version="1.0" xmlns="http://www.w3.org/2000/svg"
 width="300.000000pt" height="239.000000pt" viewBox="0 0 300.000000 239.000000"
 preserveAspectRatio="xMidYMid meet">
<metadata>
Created by potrace 1.10, written by Peter Selinger 2001-2011
</metadata>
<g transform="translate(0.000000,239.000000) scale(0.100000,-0.100000)"
fill="#000000" stroke="none">
<path d="M1846 1788 c-13 -29 -86 -179 -161 -333 -76 -154 -168 -343 -205
-420 -51 -105 -232 -476 -268 -547 -2 -5 11 -8 30 -7 l33 0 120 249 120 249
352 0 353 1 125 -250 125 -250 35 0 35 0 -24 48 c-89 176 -626 1284 -626 1292
0 5 -4 12 -10 15 -5 3 -21 -18 -34 -47z m34 -97 c0 -5 70 -151 155 -324 86
-174 156 -319 155 -322 0 -7 -640 -7 -640 0 0 3 49 108 110 233 61 125 132
271 157 325 41 85 63 117 63 88z"/>
<path d="M610 1145 l0 -668 89 5 c72 4 102 11 156 36 89 42 176 127 218 211
30 62 32 71 31 176 -1 128 -21 194 -84 273 -41 53 -129 117 -176 128 -46 11
-47 14 -12 37 70 48 116 155 104 243 -17 125 -111 205 -259 220 l-67 7 0 -668z
m180 570 c46 -32 90 -112 90 -165 0 -88 -88 -193 -173 -207 l-37 -6 0 208 0
208 41 -6 c22 -3 58 -17 79 -32z m46 -465 c74 -36 146 -110 182 -188 24 -50
27 -69 26 -152 0 -80 -5 -104 -27 -153 -28 -63 -112 -154 -168 -182 -39 -21
-123 -45 -156 -45 l-23 0 0 381 0 382 53 -7 c28 -4 79 -20 113 -36z"/>
</g>
</svg>
